<svg id="Solid" height="512" viewBox="0 0 512 512" width="512" xmlns="http://www.w3.org/2000/svg"><path d="m24 240h464v32h-464z"/><path d="m48 128h32v80h-32z"/><path d="m112 80h32v128h-32z"/><path d="m176 32h32v176h-32z"/><path d="m240 160h32v48h-32z"/><path d="m304 176h32v32h-32z"/><path d="m368 96h32v112h-32z"/><path d="m432 160h32v48h-32z"/><path d="m48 304h32v64h-32z"/><path d="m112 304h32v32h-32z"/><path d="m240 304h32v128h-32z"/><path d="m304 304h32v176h-32z"/><path d="m368 304h32v48h-32z"/><path d="m432 304h32v128h-32z"/></svg>