<svg xmlns="http://www.w3.org/2000/svg" width="177.794" height="139.681" viewBox="0 0 177.794 139.681">
  <g id="floating-wave" transform="translate(0 -47.75)">
    <g id="Group_5" data-name="Group 5" transform="translate(47.891 179.45)">
      <g id="Group_4" data-name="Group 4">
        <path id="Path_32" data-name="Path 32" d="M154.122,377.75H123.991a3.991,3.991,0,0,0,0,7.982h30.131a3.991,3.991,0,0,0,0-7.982Z" transform="translate(-120 -377.75)" fill="#fff"/>
      </g>
    </g>
    <g id="Group_7" data-name="Group 7" transform="translate(0 179.45)">
      <g id="Group_6" data-name="Group 6">
        <path id="Path_33" data-name="Path 33" d="M34.122,377.75H3.991a3.991,3.991,0,0,0,0,7.982H34.122a3.991,3.991,0,0,0,0-7.982Z" transform="translate(0 -377.75)" fill="#fff"/>
      </g>
    </g>
    <g id="Group_9" data-name="Group 9" transform="translate(95.782 179.45)">
      <g id="Group_8" data-name="Group 8">
        <path id="Path_34" data-name="Path 34" d="M274.122,377.75H243.991a3.991,3.991,0,0,0,0,7.982h30.131a3.991,3.991,0,0,0,0-7.982Z" transform="translate(-240 -377.75)" fill="#fff"/>
      </g>
    </g>
    <g id="Group_11" data-name="Group 11" transform="translate(0 167.477)">
      <g id="Group_10" data-name="Group 10">
        <path id="Path_35" data-name="Path 35" d="M34.122,347.75H3.991a3.991,3.991,0,1,0,0,7.982H34.122a3.991,3.991,0,1,0,0-7.982Z" transform="translate(0 -347.75)" fill="#fff"/>
      </g>
    </g>
    <g id="Group_13" data-name="Group 13" transform="translate(0 155.504)">
      <g id="Group_12" data-name="Group 12" transform="translate(0 0)">
        <path id="Path_36" data-name="Path 36" d="M34.122,317.75H3.991a3.991,3.991,0,1,0,0,7.982H34.122a3.991,3.991,0,1,0,0-7.982Z" transform="translate(0 -317.75)" fill="#fff"/>
      </g>
    </g>
    <g id="Group_15" data-name="Group 15" transform="translate(0 143.532)">
      <g id="Group_14" data-name="Group 14">
        <path id="Path_37" data-name="Path 37" d="M34.122,287.75H3.991a3.991,3.991,0,0,0,0,7.982H34.122a3.991,3.991,0,0,0,0-7.982Z" transform="translate(0 -287.75)" fill="#fff"/>
      </g>
    </g>
    <g id="Group_17" data-name="Group 17" transform="translate(0 131.559)">
      <g id="Group_16" data-name="Group 16">
        <path id="Path_38" data-name="Path 38" d="M34.122,257.75H3.991a3.991,3.991,0,1,0,0,7.982H34.122a3.991,3.991,0,1,0,0-7.982Z" transform="translate(0 -257.75)" fill="#fff"/>
      </g>
    </g>
    <g id="Group_19" data-name="Group 19" transform="translate(0 119.586)">
      <g id="Group_18" data-name="Group 18">
        <path id="Path_39" data-name="Path 39" d="M34.122,227.75H3.991a3.991,3.991,0,1,0,0,7.982H34.122a3.991,3.991,0,1,0,0-7.982Z" transform="translate(0 -227.75)" fill="#fff"/>
      </g>
    </g>
    <g id="Group_21" data-name="Group 21" transform="translate(47.891 167.477)">
      <g id="Group_20" data-name="Group 20">
        <path id="Path_40" data-name="Path 40" d="M154.122,347.75H123.991a3.991,3.991,0,1,0,0,7.982h30.131a3.991,3.991,0,1,0,0-7.982Z" transform="translate(-120 -347.75)" fill="#fff"/>
      </g>
    </g>
    <g id="Group_23" data-name="Group 23" transform="translate(47.891 155.504)">
      <g id="Group_22" data-name="Group 22" transform="translate(0 0)">
        <path id="Path_41" data-name="Path 41" d="M154.122,317.75H123.991a3.991,3.991,0,1,0,0,7.982h30.131a3.991,3.991,0,1,0,0-7.982Z" transform="translate(-120 -317.75)" fill="#fff"/>
      </g>
    </g>
    <g id="Group_25" data-name="Group 25" transform="translate(47.891 143.532)">
      <g id="Group_24" data-name="Group 24">
        <path id="Path_42" data-name="Path 42" d="M154.122,287.75H123.991a3.991,3.991,0,0,0,0,7.982h30.131a3.991,3.991,0,1,0,0-7.982Z" transform="translate(-120 -287.75)" fill="#fff"/>
      </g>
    </g>
    <g id="Group_27" data-name="Group 27" transform="translate(47.891 131.559)">
      <g id="Group_26" data-name="Group 26">
        <path id="Path_43" data-name="Path 43" d="M154.122,257.75H123.991a3.991,3.991,0,1,0,0,7.982h30.131a3.991,3.991,0,1,0,0-7.982Z" transform="translate(-120 -257.75)" fill="#fff"/>
      </g>
    </g>
    <g id="Group_29" data-name="Group 29" transform="translate(47.891 119.586)">
      <g id="Group_28" data-name="Group 28">
        <path id="Path_44" data-name="Path 44" d="M154.122,227.75H123.991a3.991,3.991,0,1,0,0,7.982h30.131a3.991,3.991,0,1,0,0-7.982Z" transform="translate(-120 -227.75)" fill="#fff"/>
      </g>
    </g>
    <g id="Group_31" data-name="Group 31" transform="translate(47.891 107.613)">
      <g id="Group_30" data-name="Group 30">
        <path id="Path_45" data-name="Path 45" d="M154.122,197.75H123.991a3.991,3.991,0,1,0,0,7.982h30.131a3.991,3.991,0,1,0,0-7.982Z" transform="translate(-120 -197.75)" fill="#fff"/>
      </g>
    </g>
    <g id="Group_33" data-name="Group 33" transform="translate(47.891 95.641)">
      <g id="Group_32" data-name="Group 32">
        <path id="Path_46" data-name="Path 46" d="M154.122,167.75H123.991a3.991,3.991,0,1,0,0,7.982h30.131a3.991,3.991,0,1,0,0-7.982Z" transform="translate(-120 -167.75)" fill="#fff"/>
      </g>
    </g>
    <g id="Group_35" data-name="Group 35" transform="translate(47.891 83.668)">
      <g id="Group_34" data-name="Group 34">
        <path id="Path_47" data-name="Path 47" d="M154.122,137.75H123.991a3.991,3.991,0,1,0,0,7.982h30.131a3.991,3.991,0,1,0,0-7.982Z" transform="translate(-120 -137.75)" fill="#fff"/>
      </g>
    </g>
    <g id="Group_37" data-name="Group 37" transform="translate(47.891 71.695)">
      <g id="Group_36" data-name="Group 36">
        <path id="Path_48" data-name="Path 48" d="M154.122,107.75H123.991a3.991,3.991,0,0,0,0,7.982h30.131a3.991,3.991,0,1,0,0-7.982Z" transform="translate(-120 -107.75)" fill="#fff"/>
      </g>
    </g>
    <g id="Group_39" data-name="Group 39" transform="translate(47.891 59.723)">
      <g id="Group_38" data-name="Group 38" transform="translate(0 0)">
        <path id="Path_49" data-name="Path 49" d="M154.122,77.75H123.991a3.991,3.991,0,1,0,0,7.982h30.131a3.991,3.991,0,1,0,0-7.982Z" transform="translate(-120 -77.75)" fill="#fff"/>
      </g>
    </g>
    <g id="Group_41" data-name="Group 41" transform="translate(47.891 47.75)">
      <g id="Group_40" data-name="Group 40">
        <path id="Path_50" data-name="Path 50" d="M154.122,47.75H123.991a3.991,3.991,0,1,0,0,7.982h30.131a3.991,3.991,0,1,0,0-7.982Z" transform="translate(-120 -47.75)" fill="#fff"/>
      </g>
    </g>
    <g id="Group_43" data-name="Group 43" transform="translate(95.782 167.477)">
      <g id="Group_42" data-name="Group 42">
        <path id="Path_51" data-name="Path 51" d="M274.122,347.75H243.991a3.991,3.991,0,1,0,0,7.982h30.131a3.991,3.991,0,0,0,0-7.982Z" transform="translate(-240 -347.75)" fill="#fff"/>
      </g>
    </g>
    <g id="Group_45" data-name="Group 45" transform="translate(95.782 155.504)">
      <g id="Group_44" data-name="Group 44" transform="translate(0 0)">
        <path id="Path_52" data-name="Path 52" d="M274.122,317.75H243.991a3.991,3.991,0,1,0,0,7.982h30.131a3.991,3.991,0,0,0,0-7.982Z" transform="translate(-240 -317.75)" fill="#fff"/>
      </g>
    </g>
    <g id="Group_47" data-name="Group 47" transform="translate(95.782 143.532)">
      <g id="Group_46" data-name="Group 46">
        <path id="Path_53" data-name="Path 53" d="M274.122,287.75H243.991a3.991,3.991,0,0,0,0,7.982h30.131a3.991,3.991,0,0,0,0-7.982Z" transform="translate(-240 -287.75)" fill="#fff"/>
      </g>
    </g>
    <g id="Group_49" data-name="Group 49" transform="translate(95.782 131.559)">
      <g id="Group_48" data-name="Group 48">
        <path id="Path_54" data-name="Path 54" d="M274.122,257.75H243.991a3.991,3.991,0,1,0,0,7.982h30.131a3.991,3.991,0,0,0,0-7.982Z" transform="translate(-240 -257.75)" fill="#fff"/>
      </g>
    </g>
    <g id="Group_51" data-name="Group 51" transform="translate(95.782 119.586)">
      <g id="Group_50" data-name="Group 50">
        <path id="Path_55" data-name="Path 55" d="M274.122,227.75H243.991a3.991,3.991,0,1,0,0,7.982h30.131a3.991,3.991,0,0,0,0-7.982Z" transform="translate(-240 -227.75)" fill="#fff"/>
      </g>
    </g>
    <g id="Group_53" data-name="Group 53" transform="translate(95.782 107.613)">
      <g id="Group_52" data-name="Group 52">
        <path id="Path_56" data-name="Path 56" d="M274.122,197.75H243.991a3.991,3.991,0,1,0,0,7.982h30.131a3.991,3.991,0,0,0,0-7.982Z" transform="translate(-240 -197.75)" fill="#fff"/>
      </g>
    </g>
    <g id="Group_55" data-name="Group 55" transform="translate(95.782 95.641)">
      <g id="Group_54" data-name="Group 54">
        <path id="Path_57" data-name="Path 57" d="M274.122,167.75H243.991a3.991,3.991,0,1,0,0,7.982h30.131a3.991,3.991,0,0,0,0-7.982Z" transform="translate(-240 -167.75)" fill="#fff"/>
      </g>
    </g>
    <g id="Group_57" data-name="Group 57" transform="translate(139.681 179.45)">
      <g id="Group_56" data-name="Group 56">
        <path id="Path_58" data-name="Path 58" d="M384.122,377.75H353.991a3.991,3.991,0,0,0,0,7.982h30.131a3.991,3.991,0,0,0,0-7.982Z" transform="translate(-350 -377.75)" fill="#fff"/>
      </g>
    </g>
    <g id="Group_59" data-name="Group 59" transform="translate(139.681 167.477)">
      <g id="Group_58" data-name="Group 58">
        <path id="Path_59" data-name="Path 59" d="M384.122,347.75H353.991a3.991,3.991,0,1,0,0,7.982h30.131a3.991,3.991,0,1,0,0-7.982Z" transform="translate(-350 -347.75)" fill="#fff"/>
      </g>
    </g>
    <g id="Group_61" data-name="Group 61" transform="translate(139.641 155.504)">
      <g id="Group_60" data-name="Group 60" transform="translate(0 0)">
        <path id="Path_60" data-name="Path 60" d="M384.022,317.75H353.891a3.991,3.991,0,1,0,0,7.982h30.131a3.991,3.991,0,1,0,0-7.982Z" transform="translate(-349.9 -317.75)" fill="#fff"/>
      </g>
    </g>
  </g>
</svg>
